<svg aria-roledescription="gitGraph" role="graphics-document document" viewBox="-169.39999389648438 -33.599998474121094 727.4000244140625 278.07049560546875" height="100%" xmlns="http://www.w3.org/2000/svg" width="727.4000244140625" id="graph-div" style="max-width: 100%;" xmlns:xlink="http://www.w3.org/1999/xlink"><style>@import url("https://cdnjs.cloudflare.com/ajax/libs/font-awesome/6.4.2/css/all.min.css");'</style><style>#graph-div{font-family:"trebuchet ms",verdana,arial,sans-serif;font-size:30px;fill:#333;}#graph-div .error-icon{fill:#552222;}#graph-div .error-text{fill:#552222;stroke:#552222;}#graph-div .edge-thickness-normal{stroke-width:2px;}#graph-div .edge-thickness-thick{stroke-width:3.5px;}#graph-div .edge-pattern-solid{stroke-dasharray:0;}#graph-div .edge-pattern-dashed{stroke-dasharray:3;}#graph-div .edge-pattern-dotted{stroke-dasharray:2;}#graph-div .marker{fill:#333333;stroke:#333333;}#graph-div .marker.cross{stroke:#333333;}#graph-div svg{font-family:"trebuchet ms",verdana,arial,sans-serif;font-size:30px;}#graph-div .commit-id,#graph-div .commit-msg,#graph-div .branch-label{fill:lightgrey;color:lightgrey;font-family:'trebuchet ms',verdana,arial,sans-serif;font-family:var(--mermaid-font-family);}#graph-div .branch-label0{fill:#ffffff;}#graph-div .commit0{stroke:hsl(240, 100%, 46.2745098039%);fill:hsl(240, 100%, 46.2745098039%);}#graph-div .commit-highlight0{stroke:hsl(60, 100%, 3.7254901961%);fill:hsl(60, 100%, 3.7254901961%);}#graph-div .label0{fill:hsl(240, 100%, 46.2745098039%);}#graph-div .arrow0{stroke:hsl(240, 100%, 46.2745098039%);}#graph-div .branch-label1{fill:black;}#graph-div .commit1{stroke:hsl(60, 100%, 43.5294117647%);fill:hsl(60, 100%, 43.5294117647%);}#graph-div .commit-highlight1{stroke:rgb(0, 0, 160.5);fill:rgb(0, 0, 160.5);}#graph-div .label1{fill:hsl(60, 100%, 43.5294117647%);}#graph-div .arrow1{stroke:hsl(60, 100%, 43.5294117647%);}#graph-div .branch-label2{fill:black;}#graph-div .commit2{stroke:hsl(80, 100%, 46.2745098039%);fill:hsl(80, 100%, 46.2745098039%);}#graph-div .commit-highlight2{stroke:rgb(48.8333333334, 0, 146.5000000001);fill:rgb(48.8333333334, 0, 146.5000000001);}#graph-div .label2{fill:hsl(80, 100%, 46.2745098039%);}#graph-div .arrow2{stroke:hsl(80, 100%, 46.2745098039%);}#graph-div .branch-label3{fill:#ffffff;}#graph-div .commit3{stroke:hsl(210, 100%, 46.2745098039%);fill:hsl(210, 100%, 46.2745098039%);}#graph-div .commit-highlight3{stroke:rgb(146.5000000001, 73.2500000001, 0);fill:rgb(146.5000000001, 73.2500000001, 0);}#graph-div .label3{fill:hsl(210, 100%, 46.2745098039%);}#graph-div .arrow3{stroke:hsl(210, 100%, 46.2745098039%);}#graph-div .branch-label4{fill:black;}#graph-div .commit4{stroke:hsl(180, 100%, 46.2745098039%);fill:hsl(180, 100%, 46.2745098039%);}#graph-div .commit-highlight4{stroke:rgb(146.5000000001, 0, 0);fill:rgb(146.5000000001, 0, 0);}#graph-div .label4{fill:hsl(180, 100%, 46.2745098039%);}#graph-div .arrow4{stroke:hsl(180, 100%, 46.2745098039%);}#graph-div .branch-label5{fill:black;}#graph-div .commit5{stroke:hsl(150, 100%, 46.2745098039%);fill:hsl(150, 100%, 46.2745098039%);}#graph-div .commit-highlight5{stroke:rgb(146.5000000001, 0, 73.2500000001);fill:rgb(146.5000000001, 0, 73.2500000001);}#graph-div .label5{fill:hsl(150, 100%, 46.2745098039%);}#graph-div .arrow5{stroke:hsl(150, 100%, 46.2745098039%);}#graph-div .branch-label6{fill:black;}#graph-div .commit6{stroke:hsl(300, 100%, 46.2745098039%);fill:hsl(300, 100%, 46.2745098039%);}#graph-div .commit-highlight6{stroke:rgb(0, 146.5000000001, 0);fill:rgb(0, 146.5000000001, 0);}#graph-div .label6{fill:hsl(300, 100%, 46.2745098039%);}#graph-div .arrow6{stroke:hsl(300, 100%, 46.2745098039%);}#graph-div .branch-label7{fill:black;}#graph-div .commit7{stroke:hsl(0, 100%, 46.2745098039%);fill:hsl(0, 100%, 46.2745098039%);}#graph-div .commit-highlight7{stroke:rgb(0, 146.5000000001, 146.5000000001);fill:rgb(0, 146.5000000001, 146.5000000001);}#graph-div .label7{fill:hsl(0, 100%, 46.2745098039%);}#graph-div .arrow7{stroke:hsl(0, 100%, 46.2745098039%);}#graph-div .branch{stroke-width:1;stroke:#333333;stroke-dasharray:2;}#graph-div .commit-label{font-size:10px;fill:#000021;}#graph-div .commit-label-bkg{font-size:10px;fill:#ffffde;opacity:0.5;}#graph-div .tag-label{font-size:10px;fill:#131300;}#graph-div .tag-label-bkg{fill:#ECECFF;stroke:hsl(240, 60%, 86.2745098039%);}#graph-div .tag-hole{fill:#333;}#graph-div .commit-merge{stroke:#ECECFF;fill:#ECECFF;}#graph-div .commit-reverse{stroke:#ECECFF;fill:#ECECFF;stroke-width:3;}#graph-div .commit-highlight-inner{stroke:#ECECFF;fill:#ECECFF;}#graph-div .arrow{stroke-width:8;stroke-linecap:round;fill:none;}#graph-div .gitTitleText{text-anchor:middle;font-size:18px;fill:#333;}#graph-div :root{--mermaid-font-family:"trebuchet ms",verdana,arial,sans-serif;}</style><g></g><g class="commit-bullets"></g><g class="commit-labels"></g><g><line class="branch branch0" y2="0" x2="550" y1="0" x1="0"></line><rect transform="translate(-19, -16.799999237060547)" height="37.599998474121094" width="83.01667022705078" y="-8.799999237060547" x="-99.01667022705078" ry="4" rx="4" class="branchLabelBkg label0"></rect><g class="branchLabel"><g transform="translate(-109.01667022705078, -17.799999237060547)" class="label branch-label0"><text><tspan class="row" x="0" dy="1em" xml:space="preserve">main</tspan></text></g></g><line class="branch branch1" y2="90" x2="550" y1="90" x1="0"></line><rect transform="translate(-19, 73.20000076293945)" height="37.599998474121094" width="126.4000015258789" y="-8.799999237060547" x="-142.4000015258789" ry="4" rx="4" class="branchLabelBkg label1"></rect><g class="branchLabel"><g transform="translate(-152.4000015258789, 72.20000076293945)" class="label branch-label1"><text><tspan class="row" x="0" dy="1em" xml:space="preserve">person1</tspan></text></g></g><line class="branch branch2" y2="180" x2="550" y1="180" x1="0"></line><rect transform="translate(-19, 163.20000076293945)" height="37.599998474121094" width="126.4000015258789" y="-8.799999237060547" x="-142.4000015258789" ry="4" rx="4" class="branchLabelBkg label2"></rect><g class="branchLabel"><g transform="translate(-152.4000015258789, 162.20000076293945)" class="label branch-label2"><text><tspan class="row" x="0" dy="1em" xml:space="preserve">person2</tspan></text></g></g></g><g class="commit-arrows"><path class="arrow arrow0" d="M 10 0 L 10 0  10 0 L 60 0"></path><path class="arrow arrow1" d="M 60 0 L 60 70 A 20 20, 0, 0, 0, 80 90 L 110 90"></path><path class="arrow arrow2" d="M 110 90 L 110 160 A 20 20, 0, 0, 0, 130 180 L 160 180"></path><path class="arrow arrow1" d="M 110 90 L 110 90  110 90 L 210 90"></path><path class="arrow arrow1" d="M 210 90 L 210 90  210 90 L 260 90"></path><path class="arrow arrow1" d="M 160 180 L 160 145 A 10 10, 0, 0, 1, 170 135 L 250 135 A 10 10, 0, 0, 0, 260 125 L 260 90"></path><path class="arrow arrow1" d="M 260 90 L 260 90  260 90 L 310 90"></path><path class="arrow arrow2" d="M 160 180 L 160 180  160 180 L 360 180"></path><path class="arrow arrow0" d="M 60 0 L 60 0  60 0 L 410 0"></path><path class="arrow arrow1" d="M 310 90 L 390 90 A 20 20, 0, 0, 0, 410 70 L 410 0"></path><path class="arrow arrow0" d="M 410 0 L 410 0  410 0 L 460 0"></path><path class="arrow arrow0" d="M 460 0 L 460 0  460 0 L 510 0"></path></g><g class="commit-bullets"><circle class="commit 0-2aae413 commit0" r="10" cy="0" cx="10"></circle><circle class="commit 1-e847e72 commit0" r="10" cy="0" cx="60"></circle><circle class="commit 2-af7227c commit1" r="10" cy="90" cx="110"></circle><circle class="commit 3-ea5fd9e commit2" r="10" cy="180" cx="160"></circle><circle class="commit 4-4e1e6f1 commit1" r="10" cy="90" cx="210"></circle><circle class="commit 5-56e12b4 commit1" r="9" cy="90" cx="260"></circle><circle class="commit commit-merge 5-56e12b4 commit1" r="6" cy="90" cx="260"></circle><circle class="commit 6-2da7fd9 commit1" r="10" cy="90" cx="310"></circle><circle class="commit 7-cfcc5e9 commit2" r="10" cy="180" cx="360"></circle><circle class="commit 8-017d72c commit0" r="9" cy="0" cx="410"></circle><circle class="commit commit-merge 8-017d72c commit0" r="6" cy="0" cx="410"></circle><circle class="commit 9-0faf5bd commit0" r="10" cy="0" cx="460"></circle><circle class="commit 10-9a8bff4 commit0" r="10" cy="0" cx="510"></circle></g><g class="commit-labels"><g transform="translate(-29.48933265686035, 26.274666061401366) rotate(-45, 0, 0)"><rect height="16" width="51.86666488647461" y="13.5" x="-15.933332443237305" class="commit-label-bkg"></rect><text class="commit-label" y="25" x="-13.933332443237305">0-2aae413</text></g><g transform="translate(-29.48933265686035, 26.274666061401366) rotate(-45, 50, 0)"><rect height="16" width="51.86666488647461" y="13.5" x="34.066667556762695" class="commit-label-bkg"></rect><text class="commit-label" y="25" x="36.066667556762695">1-e847e72</text></g><g transform="translate(-28.21633323669434, 25.135666580200194) rotate(-45, 100, 90)"><rect height="16" width="48.516666412353516" y="103.5" x="85.74166679382324" class="commit-label-bkg"></rect><text class="commit-label" y="115" x="87.74166679382324">2-af7227c</text></g><g transform="translate(-28.43166618347168, 25.328332901000977) rotate(-45, 150, 180)"><rect height="16" width="49.08333206176758" y="193.5" x="135.4583339691162" class="commit-label-bkg"></rect><text class="commit-label" y="205" x="137.4583339691162">3-ea5fd9e</text></g><g transform="translate(-28.43166618347168, 25.328332901000977) rotate(-45, 200, 90)"><rect height="16" width="49.08333206176758" y="103.5" x="185.4583339691162" class="commit-label-bkg"></rect><text class="commit-label" y="115" x="187.4583339691162">4-4e1e6f1</text></g><g transform="translate(-28.43166618347168, 25.328332901000977) rotate(-45, 300, 90)"><rect height="16" width="49.08333206176758" y="103.5" x="285.4583339691162" class="commit-label-bkg"></rect><text class="commit-label" y="115" x="287.4583339691162">6-2da7fd9</text></g><g transform="translate(-27.785667343139647, 24.750333938598633) rotate(-45, 350, 180)"><rect height="16" width="47.38333511352539" y="193.5" x="336.3083324432373" class="commit-label-bkg"></rect><text class="commit-label" y="205" x="338.3083324432373">7-cfcc5e9</text></g><g transform="translate(-27.37399971008301, 24.381999740600584) rotate(-45, 450, 0)"><rect height="16" width="46.29999923706055" y="13.5" x="436.8500003814697" class="commit-label-bkg"></rect><text class="commit-label" y="25" x="438.8500003814697">9-0faf5bd</text></g><g transform="translate(-29.419667053222657, 26.21233367919922) rotate(-45, 500, 0)"><rect height="16" width="51.68333435058594" y="13.5" x="484.15833282470703" class="commit-label-bkg"></rect><text class="commit-label" y="25" x="486.15833282470703">10-9a8bff4</text></g></g></svg>